<svg width="88" height="24" viewBox="0 0 88 24" fill="none" xmlns="http://www.w3.org/2000/svg">
<path d="M2 10.5C1.17157 10.5 0.5 11.1716 0.5 12C0.5 12.8284 1.17157 13.5 2 13.5L2 10.5ZM87.0607 13.0607C87.6464 12.4749 87.6464 11.5251 87.0607 10.9393L77.5147 1.3934C76.9289 0.807618 75.9792 0.807618 75.3934 1.3934C74.8076 1.97919 74.8076 2.92894 75.3934 3.51473L83.8787 12L75.3934 20.4853C74.8076 21.0711 74.8076 22.0208 75.3934 22.6066C75.9792 23.1924 76.9289 23.1924 77.5147 22.6066L87.0607 13.0607ZM2 13.5L86 13.5L86 10.5L2 10.5L2 13.5Z" fill="#0C0C0C" fill-opacity="0.1"/>
</svg>
